<?xml version="1.0" encoding="UTF-8"?><svg id="Layer_1" xmlns="http://www.w3.org/2000/svg" viewBox="0 0 145 59.49"><defs><style>.cls-1{opacity:.8;}.cls-1,.cls-2,.cls-3{fill:#fff;stroke-width:0px;}.cls-1,.cls-3{isolation:isolate;}.cls-3{opacity:.5;}</style></defs><path class="cls-3" d="m27.78,29.54l-13.88,3.47-6.95,26,20.83-29.47Z"/><path class="cls-1" d="m27.78,29.54L0,36.54v-17.44h20.83l7,10.43h-.05Z"/><path class="cls-2" d="m0,19.1v17.4L20.83,0,0,19.1Z"/><path class="cls-2" d="m43.35,15.59l6.38,9.14,6.38-9.14h6.3l-9.29,13.31,10.15,14.52h-6.42l-7.09-9.94-7,9.94h-6.26l10-14.27-9.36-13.56h6.21Zm41.3,27.83l-4.79-8.2c-.33.02-.67.02-1,0h-6.22v8.2h-5.34V15.59h11.56c7.17,0,11.26,3.45,11.26,9.58,0,4.38-1.94,7.51-5.51,9l6.1,9.25h-6.06Zm-12-12.91h6.25c4,0,6.18-1.7,6.18-5.2s-2.22-5.09-6.18-5.09h-6.26v10.3h.01Zm42.18,7h-13.58l-2.46,5.91h-5.49l12.2-27.83h5.5l12.02,27.83h-5.71l-2.48-5.91Zm-1.9-4.58l-4.84-11.74-5,11.71,9.84.03Zm22,1.32v9.17h-5.31v-8.91l-10.36-18.92h5.39l7.56,13.08,7.45-13.08h5.34l-10.07,18.66Z"/></svg>